<svg version="1.1"
      xmlns="http://www.w3.org/2000/svg"
      xmlns:xlink="http://www.w3.org/1999/xlink"  id="snapshot-39677" width="250" height="250" viewBox="0 0 250 250"><desc>This image was made on Patterninja.com</desc><defs>
<!-- image 82981 -->
<g id="transformed-82981" data-image="82981" transform="translate(-16.44999999999999, -40.13999999999996) rotate(182, 187.5, 187.49999999999997)"><g><svg version="1.1" width="375px" height="374.99999999999994px" viewBox="0 0 375 374.99999999999994"><g id="original-82981"><svg xmlns="http://www.w3.org/2000/svg" viewBox="0 0 400 400" xmlns:xlink="http://www.w3.org/1999/xlink" version="1.1" preserveAspectRatio="xMidYMid meet">
  <path d="M258.9 119.7c-7.9-16.3-23-29-41.5-34.7-34.3-10.6-70.9 8.6-81.6 43-.3.8-1.7 5-2.2 8-.7 4.2-1.2 13.7-.1 20.8v.2l.8 4.1c1.6 11.8 12.4 20.2 24.3 18.8 11.9-1.5 20.4-12.4 18.9-24.3l-.4-3c0-.2-.1-.5-.1-.7-1.1-4.1 0-8.9 0-8.9 1.5-5.9 5.2-10.8 10.4-13.9 4.9-2.9 10.5-3.8 16-2.7.2.1.4.2.6.2.4.1.8.2 1.1.2 6 1.7 11.3 6.1 14.3 11.8 2.7 5.1 3.3 10.5 1.6 15.2-5 14.1-49.3 124.6-55.2 139.3-.5.7-.9 1.6-.9 2.5-3.6 10.5 1.7 22.1 12.2 26.2 2.5 1 5.1 1.4 7.6 1.4 8.4 0 16.3-5 19.5-13.3l56-143c6.4-15.9 5.9-32.2-1.3-47.2zm-55.1 164.2l-25.5 5.3c1.4-3.4 3-7.6 5-12.4.2 0 .5 0 .7-.1l24.6-5.2-4.8 12.4zm9.1-23.4l-25.3 5.3c1.9-4.6 3.8-9.6 5.9-14.7l25.2-5.3-5.8 14.7zm10.1-25.8l-25.1 5.3c1.8-4.5 3.6-9.1 5.5-13.7l25-5.2-5.4 13.6zm9.8-24.8l-24.9 5.2c1.9-4.8 3.8-9.6 5.6-14.2.3 0 .5 0 .8-.1l24-5-5.5 14.1zm-21.3-91.4l6.3-22.7c6.8 2.6 13.1 6.2 18.3 10.8l-17 16.5c-2.2-1.9-4.8-3.5-7.6-4.6zm31.1 66.2l-24.8 5.2c2.2-5.7 4.3-10.9 6.1-15.5l24.8-5.2-6.1 15.5zm8.7-26.3l-23 4.8c1-2.7 1.8-4.8 2.3-6 .9-2.6 1.4-5.3 1.5-8.1l22.4-8.4c.5 5.8-.1 11.7-1.8 17.6-.5 0-.9 0-1.4.1zm1.2-27.7l-22 8.3c-.6-1.7-1.3-3.4-2.2-5.1-.7-1.3-1.4-2.4-2.2-3.6l17.1-16.6c2.6 3.2 4.9 6.7 6.6 10.4 1.1 2.2 2 4.4 2.7 6.6zm-107.2.3c1.9-6.3 4.9-11.9 8.7-16.9l16.7 18.2c-1.5 2.5-2.6 5.3-3.3 8.2-.1.2-.2 1-.4 2.2l-21.9-10.9c.1-.3.2-.5.2-.7v-.1zm12.1 39c-6.5.8-12.4-3.8-13.2-10.2 0-.1 0-.2-.1-.3l-.8-4.1c-.6-4.1-.6-9.3-.3-13.3l24.3 12.1.3 2.7c.8 6.4-3.8 12.3-10.2 13.1zm19.7-45.5l-16.3-17.7c5.6-5.1 12.1-9 19.2-11.5l4.6 24.1c-.7.4-1.4.7-2.1 1.1-2 1.2-3.8 2.5-5.4 4zm17-8.2l-4.5-23.5c6.1-1 12.3-.9 18.6.3l-6.4 23c-1-.1-1.9-.1-2.9-.1-1.6 0-3.2.1-4.8.3zm-13.3 196.3c-5-2-7.7-7.2-6.8-12.2l25.4-5.3-4.4 11.4c-2.3 5.5-8.6 8.3-14.2 6.1z" fill="rgba(221, 221, 221, 1)" stroke="none"/>
</svg>
</g></svg></g></g>
<!-- /image 82981 -->

<!-- image 08851 -->
<g id="transformed-08851" data-image="08851" transform="translate(91.43643530193131, -95.41356469806874) rotate(101, 153.29356469806868, 153.29356469806874)"><g><svg version="1.1" width="306.58712939613736px" height="306.58712939613747px" viewBox="0 0 306.58712939613736 306.58712939613747"><g id="original-08851"><svg xmlns="http://www.w3.org/2000/svg" viewBox="0 0 400 400" xmlns:xlink="http://www.w3.org/1999/xlink" version="1.1" preserveAspectRatio="xMidYMid meet">
  <path d="M258.9 119.7c-7.9-16.3-23-29-41.5-34.7-34.3-10.6-70.9 8.6-81.6 43-.3.8-1.7 5-2.2 8-.7 4.2-1.2 13.7-.1 20.8v.2l.8 4.1c1.6 11.8 12.4 20.2 24.3 18.8 11.9-1.5 20.4-12.4 18.9-24.3l-.4-3c0-.2-.1-.5-.1-.7-1.1-4.1 0-8.9 0-8.9 1.5-5.9 5.2-10.8 10.4-13.9 4.9-2.9 10.5-3.8 16-2.7.2.1.4.2.6.2.4.1.8.2 1.1.2 6 1.7 11.3 6.1 14.3 11.8 2.7 5.1 3.3 10.5 1.6 15.2-5 14.1-49.3 124.6-55.2 139.3-.5.7-.9 1.6-.9 2.5-3.6 10.5 1.7 22.1 12.2 26.2 2.5 1 5.1 1.4 7.6 1.4 8.4 0 16.3-5 19.5-13.3l56-143c6.4-15.9 5.9-32.2-1.3-47.2zm-55.1 164.2l-25.5 5.3c1.4-3.4 3-7.6 5-12.4.2 0 .5 0 .7-.1l24.6-5.2-4.8 12.4zm9.1-23.4l-25.3 5.3c1.9-4.6 3.8-9.6 5.9-14.7l25.2-5.3-5.8 14.7zm10.1-25.8l-25.1 5.3c1.8-4.5 3.6-9.1 5.5-13.7l25-5.2-5.4 13.6zm9.8-24.8l-24.9 5.2c1.9-4.8 3.8-9.6 5.6-14.2.3 0 .5 0 .8-.1l24-5-5.5 14.1zm-21.3-91.4l6.3-22.7c6.8 2.6 13.1 6.2 18.3 10.8l-17 16.5c-2.2-1.9-4.8-3.5-7.6-4.6zm31.1 66.2l-24.8 5.2c2.2-5.7 4.3-10.9 6.1-15.5l24.8-5.2-6.1 15.5zm8.7-26.3l-23 4.8c1-2.7 1.8-4.8 2.3-6 .9-2.6 1.4-5.3 1.5-8.1l22.4-8.4c.5 5.8-.1 11.7-1.8 17.6-.5 0-.9 0-1.4.1zm1.2-27.7l-22 8.3c-.6-1.7-1.3-3.4-2.2-5.1-.7-1.3-1.4-2.4-2.2-3.6l17.1-16.6c2.6 3.2 4.9 6.7 6.6 10.4 1.1 2.2 2 4.4 2.7 6.6zm-107.2.3c1.9-6.3 4.9-11.9 8.7-16.9l16.7 18.2c-1.5 2.5-2.6 5.3-3.3 8.2-.1.2-.2 1-.4 2.2l-21.9-10.9c.1-.3.2-.5.2-.7v-.1zm12.1 39c-6.5.8-12.4-3.8-13.2-10.2 0-.1 0-.2-.1-.3l-.8-4.1c-.6-4.1-.6-9.3-.3-13.3l24.3 12.1.3 2.7c.8 6.4-3.8 12.3-10.2 13.1zm19.7-45.5l-16.3-17.7c5.6-5.1 12.1-9 19.2-11.5l4.6 24.1c-.7.4-1.4.7-2.1 1.1-2 1.2-3.8 2.5-5.4 4zm17-8.2l-4.5-23.5c6.1-1 12.3-.9 18.6.3l-6.4 23c-1-.1-1.9-.1-2.9-.1-1.6 0-3.2.1-4.8.3zm-13.3 196.3c-5-2-7.7-7.2-6.8-12.2l25.4-5.3-4.4 11.4c-2.3 5.5-8.6 8.3-14.2 6.1z" fill="rgba(221, 221, 221, 1)" stroke="none"/>
</svg>
</g></svg></g></g>
<!-- /image 08851 -->

<!-- image 45541 -->
<g id="transformed-45541" data-image="45541" transform="translate(-125, -125) rotate(0, 125, 125)"><g><svg version="1.1" width="250px" height="250px" viewBox="0 0 250 250"><g id="original-45541"><svg xmlns="http://www.w3.org/2000/svg" viewBox="0 0 400 400" xmlns:xlink="http://www.w3.org/1999/xlink" version="1.1" preserveAspectRatio="xMidYMid meet">
  <path d="M258.9 119.7c-7.9-16.3-23-29-41.5-34.7-34.3-10.6-70.9 8.6-81.6 43-.3.8-1.7 5-2.2 8-.7 4.2-1.2 13.7-.1 20.8v.2l.8 4.1c1.6 11.8 12.4 20.2 24.3 18.8 11.9-1.5 20.4-12.4 18.9-24.3l-.4-3c0-.2-.1-.5-.1-.7-1.1-4.1 0-8.9 0-8.9 1.5-5.9 5.2-10.8 10.4-13.9 4.9-2.9 10.5-3.8 16-2.7.2.1.4.2.6.2.4.1.8.2 1.1.2 6 1.7 11.3 6.1 14.3 11.8 2.7 5.1 3.3 10.5 1.6 15.2-5 14.1-49.3 124.6-55.2 139.3-.5.7-.9 1.6-.9 2.5-3.6 10.5 1.7 22.1 12.2 26.2 2.5 1 5.1 1.4 7.6 1.4 8.4 0 16.3-5 19.5-13.3l56-143c6.4-15.9 5.9-32.2-1.3-47.2zm-55.1 164.2l-25.5 5.3c1.4-3.4 3-7.6 5-12.4.2 0 .5 0 .7-.1l24.6-5.2-4.8 12.4zm9.1-23.4l-25.3 5.3c1.9-4.6 3.8-9.6 5.9-14.7l25.2-5.3-5.8 14.7zm10.1-25.8l-25.1 5.3c1.8-4.5 3.6-9.1 5.5-13.7l25-5.2-5.4 13.6zm9.8-24.8l-24.9 5.2c1.9-4.8 3.8-9.6 5.6-14.2.3 0 .5 0 .8-.1l24-5-5.5 14.1zm-21.3-91.4l6.3-22.7c6.8 2.6 13.1 6.2 18.3 10.8l-17 16.5c-2.2-1.9-4.8-3.5-7.6-4.6zm31.1 66.2l-24.8 5.2c2.2-5.7 4.3-10.9 6.1-15.5l24.8-5.2-6.1 15.5zm8.7-26.3l-23 4.8c1-2.7 1.8-4.8 2.3-6 .9-2.6 1.4-5.3 1.5-8.1l22.4-8.4c.5 5.8-.1 11.7-1.8 17.6-.5 0-.9 0-1.4.1zm1.2-27.7l-22 8.3c-.6-1.7-1.3-3.4-2.2-5.1-.7-1.3-1.4-2.4-2.2-3.6l17.1-16.6c2.6 3.2 4.9 6.7 6.6 10.4 1.1 2.2 2 4.4 2.7 6.6zm-107.2.3c1.9-6.3 4.9-11.9 8.7-16.9l16.7 18.2c-1.5 2.5-2.6 5.3-3.3 8.2-.1.2-.2 1-.4 2.2l-21.9-10.9c.1-.3.2-.5.2-.7v-.1zm12.1 39c-6.5.8-12.4-3.8-13.2-10.2 0-.1 0-.2-.1-.3l-.8-4.1c-.6-4.1-.6-9.3-.3-13.3l24.3 12.1.3 2.7c.8 6.4-3.8 12.3-10.2 13.1zm19.7-45.5l-16.3-17.7c5.6-5.1 12.1-9 19.2-11.5l4.6 24.1c-.7.4-1.4.7-2.1 1.1-2 1.2-3.8 2.5-5.4 4zm17-8.2l-4.5-23.5c6.1-1 12.3-.9 18.6.3l-6.4 23c-1-.1-1.9-.1-2.9-.1-1.6 0-3.2.1-4.8.3zm-13.3 196.3c-5-2-7.7-7.2-6.8-12.2l25.4-5.3-4.4 11.4c-2.3 5.5-8.6 8.3-14.2 6.1z" fill="rgba(221, 221, 221, 1)" stroke="none"/>
</svg>
</g></svg></g></g>
<!-- /image 45541 -->

<!-- image 25798 -->
<g id="transformed-25798" data-image="25798" transform="translate(-15.099999999999937, -124.35) rotate(42, 128.24999999999994, 187.5)"><g><svg version="1.1" width="256.4999999999999px" height="375px" viewBox="0 0 256.4999999999999 375"><g id="original-25798"><svg xmlns="http://www.w3.org/2000/svg" viewBox="0 0 81 118" xmlns:xlink="http://www.w3.org/1999/xlink" version="1.1" preserveAspectRatio="xMidYMid meet">
  <defs>
    <path id="a" d="M.557 21.525h80.115V.177H.557z" fill="rgba(0, 0, 0, 1)" stroke="none"/>
    <path id="c" d="M4.56 92.42l-2.644-4.665A7.864 7.864 0 0 1 15.6 80.003l2.644 4.666c3.25 5.738 10.563 7.763 16.304 4.514 5.737-3.251 7.761-10.563 4.512-16.307L4.533 11.921c-2.14-3.776-.812-8.573 2.97-10.716a7.865 7.865 0 0 1 10.716 2.967L52.74 65.128c7.528 13.287 2.84 30.217-10.444 37.737a27.515 27.515 0 0 1-13.601 3.592c-9.656.002-19.045-5.049-24.136-14.037" fill="rgba(0, 0, 0, 1)" stroke="none"/>
    <path id="e" d="M.692 99.74h54.307V.184H.692z" fill="rgba(0, 0, 0, 1)" stroke="none"/>
  </defs>
  <g transform="matrix(1 0 0 -1 0 118)">
    <mask id="b" fill="#fff" fill-rule="evenodd">
      <use xlink:href="#a"/>
    </mask>
    <path d="M80.672 10.85C80.672 4.956 62.739.177 40.615.177 18.492.177.557 4.956.557 10.85c0 5.896 17.935 10.675 40.058 10.675 22.124 0 40.057-4.779 40.057-10.675" mask="url(#b)" fill="rgba(88, 89, 91, 0.2)" stroke="none" fill-rule="evenodd"/>
  </g>
  <path fill-rule="evenodd" d="M19.503 106.128a7.864 7.864 0 0 0 10.716-2.967L64.74 42.206C72.268 28.92 67.583 11.99 54.3 4.468 41.013-3.058 24.087 1.626 16.56 14.914l-2.643 4.664c-2.14 3.78-.813 8.58 2.966 10.719A7.866 7.866 0 0 0 27.6 27.33l2.644-4.666c3.25-5.738 10.564-7.763 16.304-4.512 5.737 3.249 7.761 10.56 4.512 16.305L16.533 95.412a7.861 7.861 0 0 0 2.97 10.716" fill="rgba(244, 244, 245, 1)" stroke="none"/>
  <g transform="matrix(1 0 0 -1 12 107.333)">
    <mask id="d" fill="#fff" fill-rule="evenodd">
      <use xlink:href="#c"/>
    </mask>
    <path d="M-36.803 97.656l-3.425 12.371 115.08 31.856 3.426-12.374z" mask="url(#d)" fill="rgba(245, 140, 142, 1)" stroke="none" fill-rule="evenodd"/>
    <path d="M-29.802 72.362l-3.577 12.917L81.7 117.137l3.577-12.914z" mask="url(#d)" fill="rgba(245, 140, 142, 1)" stroke="none" fill-rule="evenodd"/>
    <path d="M-23.103 48.158l-3.424 12.373L87.7 92.15l3.426-12.377z" mask="url(#d)" fill="rgba(245, 140, 142, 1)" stroke="none" fill-rule="evenodd"/>
    <path d="M-16.254 23.406l-3.424 12.376 115.08 31.853 3.428-12.37z" mask="url(#d)" fill="rgba(245, 140, 142, 1)" stroke="none" fill-rule="evenodd"/>
    <path d="M-9.251-1.884l-3.576 12.917 115.083 31.856 3.574-12.914z" mask="url(#d)" fill="rgba(245, 140, 142, 1)" stroke="none" fill-rule="evenodd"/>
    <path d="M-2.55-26.091l-3.426 12.375 114.228 31.618 3.427-12.373z" mask="url(#d)" fill="rgba(245, 140, 142, 1)" stroke="none" fill-rule="evenodd"/>
  </g>
  <g transform="matrix(1 0 0 -1 13.333 107.333)">
    <mask id="f" fill="#fff" fill-rule="evenodd">
      <use xlink:href="#e"/>
    </mask>
    <path d="M3.55 77.036a7.866 7.866 0 0 1 10.717 2.967l2.644 4.667c3.25 5.737 10.562 7.762 16.304 4.512a11.86 11.86 0 0 0 1.097-.707 11.86 11.86 0 0 1-3.764 3.373c-5.741 3.251-13.053 1.226-16.304-4.512L11.6 82.67A7.866 7.866 0 0 0 .883 79.703c-.067.037-.127.083-.192.121a7.82 7.82 0 0 1 2.858-2.788" mask="url(#f)" fill="rgba(245, 140, 142, 0.5)" stroke="none" fill-rule="evenodd"/>
    <path d="M45.396 99.74c7.581-8.61 9.31-21.415 3.345-31.946L14.22 6.838A7.863 7.863 0 0 0 3.503 3.873c-.068.037-.128.083-.192.121a7.82 7.82 0 0 1 2.858-2.788 7.863 7.863 0 0 1 10.716 2.966l34.523 60.956c6.616 11.678 3.79 26.168-6.012 34.612" mask="url(#f)" fill="rgba(245, 140, 142, 0.5)" stroke="none" fill-rule="evenodd"/>
  </g>
</svg>
</g></svg></g></g>
<!-- /image 25798 -->
</defs><rect x="0" y="0" width="250" height="250" fill="rgba(0, 0, 0, 1)"></rect><use xlink:href="#transformed-82981" transform="translate(-250, -250)"></use><use xlink:href="#transformed-82981" transform="translate(0, -250)"></use><use xlink:href="#transformed-82981" transform="translate(250, -250)"></use><use xlink:href="#transformed-82981" transform="translate(-250, 0)"></use><use xlink:href="#transformed-82981" transform="translate(0, 0)"></use><use xlink:href="#transformed-82981" transform="translate(250, 0)"></use><use xlink:href="#transformed-82981" transform="translate(-250, 250)"></use><use xlink:href="#transformed-82981" transform="translate(0, 250)"></use><use xlink:href="#transformed-82981" transform="translate(250, 250)"></use><use xlink:href="#transformed-08851" transform="translate(-250, -250)"></use><use xlink:href="#transformed-08851" transform="translate(0, -250)"></use><use xlink:href="#transformed-08851" transform="translate(250, -250)"></use><use xlink:href="#transformed-08851" transform="translate(-250, 0)"></use><use xlink:href="#transformed-08851" transform="translate(0, 0)"></use><use xlink:href="#transformed-08851" transform="translate(250, 0)"></use><use xlink:href="#transformed-08851" transform="translate(-250, 250)"></use><use xlink:href="#transformed-08851" transform="translate(0, 250)"></use><use xlink:href="#transformed-08851" transform="translate(250, 250)"></use><use xlink:href="#transformed-45541" transform="translate(-250, -250)"></use><use xlink:href="#transformed-45541" transform="translate(0, -250)"></use><use xlink:href="#transformed-45541" transform="translate(250, -250)"></use><use xlink:href="#transformed-45541" transform="translate(-250, 0)"></use><use xlink:href="#transformed-45541" transform="translate(0, 0)"></use><use xlink:href="#transformed-45541" transform="translate(250, 0)"></use><use xlink:href="#transformed-45541" transform="translate(-250, 250)"></use><use xlink:href="#transformed-45541" transform="translate(0, 250)"></use><use xlink:href="#transformed-45541" transform="translate(250, 250)"></use><use xlink:href="#transformed-25798" transform="translate(-250, -250)"></use><use xlink:href="#transformed-25798" transform="translate(0, -250)"></use><use xlink:href="#transformed-25798" transform="translate(250, -250)"></use><use xlink:href="#transformed-25798" transform="translate(-250, 0)"></use><use xlink:href="#transformed-25798" transform="translate(0, 0)"></use><use xlink:href="#transformed-25798" transform="translate(250, 0)"></use><use xlink:href="#transformed-25798" transform="translate(-250, 250)"></use><use xlink:href="#transformed-25798" transform="translate(0, 250)"></use><use xlink:href="#transformed-25798" transform="translate(250, 250)"></use></svg>