<svg xmlns="http://www.w3.org/2000/svg" width="1440" height="900"><path d="M568,601L266,601L266,903Z" fill="#ffffff" stroke="#ffffff" stroke-width="1.51"/><path d="M266,903L568,903L568,601Z" fill="#f3f3f3" stroke="#f3f3f3" stroke-width="1.51"/><path d="M266,601L-36,601L266,903Z" fill="#e4e4e4" stroke="#e4e4e4" stroke-width="1.51"/><path d="M-36,601L-36,903L266,903Z" fill="#c7c7c7" stroke="#c7c7c7" stroke-width="1.51"/><path d="M568,601L266,298L266,601Z" fill="#ffffff" stroke="#ffffff" stroke-width="1.51"/><path d="M266,601L266,298L-36,601Z" fill="#e4e4e4" stroke="#e4e4e4" stroke-width="1.51"/><path d="M-36,903L266,1206L266,903Z" fill="#aaaaaa" stroke="#aaaaaa" stroke-width="1.51"/><path d="M266,903L266,1206L568,903Z" fill="#c4c4c4" stroke="#c4c4c4" stroke-width="1.51"/><path d="M568,601L568,298L266,298Z" fill="#ffffff" stroke="#ffffff" stroke-width="1.51"/><path d="M266,1206L568,1206L568,903Z" fill="#adadad" stroke="#adadad" stroke-width="1.51"/><path d="M871,903L871,601L568,903Z" fill="#f3f3f3" stroke="#f3f3f3" stroke-width="1.51"/><path d="M568,903L871,601L568,601Z" fill="#ffffff" stroke="#ffffff" stroke-width="1.51"/><path d="M568,601L871,601L568,298Z" fill="#ffffff" stroke="#ffffff" stroke-width="1.51"/><path d="M568,1206L871,903L568,903Z" fill="#c4c4c4" stroke="#c4c4c4" stroke-width="1.51"/><path d="M266,298L-36,298L-36,601Z" fill="#d3d3d3" stroke="#d3d3d3" stroke-width="1.51"/><path d="M-36,903L-36,1206L266,1206Z" fill="#848484" stroke="#848484" stroke-width="1.51"/><path d="M871,601L871,298L568,298Z" fill="#ffffff" stroke="#ffffff" stroke-width="1.51"/><path d="M568,1206L871,1206L871,903Z" fill="#adadad" stroke="#adadad" stroke-width="1.51"/><path d="M-36,298L-339,601L-36,601Z" fill="#b0b0b0" stroke="#b0b0b0" stroke-width="1.51"/><path d="M-36,601L-339,601L-36,903Z" fill="#b0b0b0" stroke="#b0b0b0" stroke-width="1.51"/><path d="M-36,903L-339,903L-36,1206Z" fill="#797979" stroke="#797979" stroke-width="1.51"/><path d="M-339,601L-339,903L-36,903Z" fill="#949494" stroke="#949494" stroke-width="1.51"/><path d="M266,298L266,-4L-36,298Z" fill="#e4e4e4" stroke="#e4e4e4" stroke-width="1.51"/><path d="M568,298L266,-4L266,298Z" fill="#ffffff" stroke="#ffffff" stroke-width="1.51"/><path d="M568,-4L266,-4L568,298Z" fill="#f3f3f3" stroke="#f3f3f3" stroke-width="1.51"/><path d="M871,298L568,-4L568,298Z" fill="#ffffff" stroke="#ffffff" stroke-width="1.51"/><path d="M871,601L1173,601L871,298Z" fill="#ffffff" stroke="#ffffff" stroke-width="1.51"/><path d="M871,903L1173,601L871,601Z" fill="#ffffff" stroke="#ffffff" stroke-width="1.51"/><path d="M1173,903L1173,601L871,903Z" fill="#f3f3f3" stroke="#f3f3f3" stroke-width="1.51"/><path d="M871,1206L1173,903L871,903Z" fill="#c4c4c4" stroke="#c4c4c4" stroke-width="1.51"/><path d="M266,-4L-36,-4L-36,298Z" fill="#c7c7c7" stroke="#c7c7c7" stroke-width="1.51"/><path d="M-36,298L-339,298L-339,601Z" fill="#9f9f9f" stroke="#9f9f9f" stroke-width="1.51"/><path d="M-36,-4L-339,298L-36,298Z" fill="#b0b0b0" stroke="#b0b0b0" stroke-width="1.51"/><path d="M-339,903L-339,1206L-36,1206Z" fill="#555555" stroke="#555555" stroke-width="1.51"/><path d="M871,298L871,-4L568,-4Z" fill="#f3f3f3" stroke="#f3f3f3" stroke-width="1.51"/><path d="M1173,298L871,-4L871,298Z" fill="#ffffff" stroke="#ffffff" stroke-width="1.51"/><path d="M1173,601L1173,298L871,298Z" fill="#ffffff" stroke="#ffffff" stroke-width="1.51"/><path d="M871,1206L1173,1206L1173,903Z" fill="#adadad" stroke="#adadad" stroke-width="1.51"/><path d="M-36,-4L-339,-4L-339,298Z" fill="#949494" stroke="#949494" stroke-width="1.51"/><path d="M266,-4L266,-306L-36,-4Z" fill="#aaaaaa" stroke="#aaaaaa" stroke-width="1.51"/><path d="M568,-4L266,-306L266,-4Z" fill="#c4c4c4" stroke="#c4c4c4" stroke-width="1.51"/><path d="M568,-306L266,-306L568,-4Z" fill="#adadad" stroke="#adadad" stroke-width="1.51"/><path d="M871,-4L568,-306L568,-4Z" fill="#c4c4c4" stroke="#c4c4c4" stroke-width="1.51"/><path d="M-36,-306L-339,-4L-36,-4Z" fill="#797979" stroke="#797979" stroke-width="1.51"/><path d="M871,-4L871,-306L568,-306Z" fill="#adadad" stroke="#adadad" stroke-width="1.51"/><path d="M1173,298L1173,-4L871,-4Z" fill="#f3f3f3" stroke="#f3f3f3" stroke-width="1.51"/><path d="M1173,601L1476,601L1173,298Z" fill="#e4e4e4" stroke="#e4e4e4" stroke-width="1.51"/><path d="M1173,298L1476,298L1173,-4Z" fill="#e4e4e4" stroke="#e4e4e4" stroke-width="1.51"/><path d="M1173,903L1476,601L1173,601Z" fill="#e4e4e4" stroke="#e4e4e4" stroke-width="1.51"/><path d="M1476,903L1476,601L1173,903Z" fill="#c7c7c7" stroke="#c7c7c7" stroke-width="1.51"/><path d="M1173,1206L1476,903L1173,903Z" fill="#aaaaaa" stroke="#aaaaaa" stroke-width="1.51"/><path d="M266,-306L-36,-306L-36,-4Z" fill="#848484" stroke="#848484" stroke-width="1.51"/><path d="M1173,-4L871,-306L871,-4Z" fill="#c4c4c4" stroke="#c4c4c4" stroke-width="1.51"/><path d="M1173,-4L1173,-306L871,-306Z" fill="#adadad" stroke="#adadad" stroke-width="1.51"/><path d="M1476,601L1476,298L1173,298Z" fill="#d3d3d3" stroke="#d3d3d3" stroke-width="1.51"/><path d="M1173,1206L1476,1206L1476,903Z" fill="#848484" stroke="#848484" stroke-width="1.51"/><path d="M-36,-306L-339,-306L-339,-4Z" fill="#555555" stroke="#555555" stroke-width="1.51"/><path d="M1476,-4L1173,-306L1173,-4Z" fill="#aaaaaa" stroke="#aaaaaa" stroke-width="1.51"/><path d="M1476,298L1476,-4L1173,-4Z" fill="#c7c7c7" stroke="#c7c7c7" stroke-width="1.51"/><path d="M1476,601L1778,601L1476,298Z" fill="#b0b0b0" stroke="#b0b0b0" stroke-width="1.51"/><path d="M1476,298L1778,298L1476,-4Z" fill="#b0b0b0" stroke="#b0b0b0" stroke-width="1.51"/><path d="M1476,903L1778,601L1476,601Z" fill="#b0b0b0" stroke="#b0b0b0" stroke-width="1.51"/><path d="M1778,903L1778,601L1476,903Z" fill="#959595" stroke="#959595" stroke-width="1.51"/><path d="M1476,1206L1778,903L1476,903Z" fill="#797979" stroke="#797979" stroke-width="1.51"/><path d="M1778,601L1778,298L1476,298Z" fill="#a0a0a0" stroke="#a0a0a0" stroke-width="1.51"/><path d="M1476,1206L1778,1206L1778,903Z" fill="#565656" stroke="#565656" stroke-width="1.51"/><path d="M1778,-4L1476,-306L1476,-4Z" fill="#797979" stroke="#797979" stroke-width="1.51"/><path d="M1476,-4L1476,-306L1173,-306Z" fill="#848484" stroke="#848484" stroke-width="1.51"/><path d="M1778,298L1778,-4L1476,-4Z" fill="#959595" stroke="#959595" stroke-width="1.51"/><path d="M1778,-4L1778,-306L1476,-306Z" fill="#565656" stroke="#565656" stroke-width="1.51"/></svg>